<?xml version="1.0" standalone="no"?>
<!DOCTYPE svg PUBLIC "-//W3C//DTD SVG 20010904//EN"
 "http://www.w3.org/TR/2001/REC-SVG-20010904/DTD/svg10.dtd">
<svg version="1.0" xmlns="http://www.w3.org/2000/svg"
 width="674.000000pt" height="674.000000pt" viewBox="0 0 674.000000 674.000000"
 preserveAspectRatio="xMidYMid meet">
<metadata>
Created by potrace 1.11, written by Peter Selinger 2001-2013
</metadata>
<g transform="translate(0.000000,674.000000) scale(0.100000,-0.100000)"
fill="#000000" stroke="none">
<path d="M3169 6706 c-2 -2 -40 -7 -84 -10 -44 -4 -107 -11 -140 -16 -33 -5
-78 -12 -100 -15 -225 -34 -596 -153 -798 -257 -34 -18 -64 -32 -67 -33 -26
-4 -341 -208 -386 -250 -6 -5 -32 -28 -59 -49 -185 -154 -353 -362 -457 -567
-69 -135 -83 -170 -117 -292 -56 -197 -59 -226 -60 -788 l-1 -436 -66 -1 c-57
0 -67 2 -71 19 -5 17 -15 19 -79 19 l-74 0 -1 -97 c-1 -54 -2 -132 -4 -173 -1
-41 -6 -183 -9 -315 -4 -132 -9 -289 -11 -350 -12 -392 -17 -556 -20 -675 -10
-332 -15 -516 -20 -665 -13 -404 -15 -503 -20 -697 l-5 -208 70 0 70 0 1 -77
c1 -148 9 -388 13 -398 2 -6 49 -10 115 -9 l111 0 0 -147 0 -147 48 -11 c62
-14 102 -19 252 -27 446 -23 877 -29 2210 -29 1324 0 1768 6 2165 30 171 10
206 13 257 25 l47 12 3 146 3 147 67 0 c37 0 69 3 72 6 3 2 6 111 8 242 l3
237 72 0 72 0 -4 257 c-2 142 -7 398 -11 568 -3 171 -7 391 -9 490 -2 99 -6
340 -10 535 -4 195 -9 481 -11 635 -2 154 -5 357 -8 450 -3 94 -5 187 -6 208
l0 37 -75 0 c-68 0 -75 -2 -75 -20 0 -18 -6 -19 -52 -17 -41 3 -52 7 -48 18 9
26 9 913 -1 969 -5 30 -11 73 -14 95 -3 22 -13 65 -21 95 -9 30 -18 62 -19 70
-15 63 -74 203 -127 300 -140 256 -360 495 -618 671 -36 24 -66 47 -68 52 -2
4 -8 7 -13 7 -5 0 -39 19 -76 42 -156 95 -389 197 -607 264 -61 19 -120 36
-131 38 -11 2 -42 10 -70 16 -27 6 -61 14 -75 16 -14 2 -34 6 -46 9 -12 3 -39
7 -60 10 -21 4 -46 8 -54 10 -8 2 -44 7 -80 10 -36 4 -76 9 -90 12 -29 6 -525
15 -531 9z m-2271 -4328 l2 -1248 -79 0 -78 0 -3 93 c-3 139 -4 142 -29 145
l-22 4 6 201 c3 111 8 276 10 367 6 223 14 494 20 675 2 83 7 251 10 375 4
124 8 270 10 325 2 55 4 147 5 205 l2 105 72 0 71 0 3 -1247z m5078 1228 c1
-10 6 -208 9 -440 4 -231 8 -484 10 -561 2 -77 6 -315 10 -530 3 -214 8 -461
9 -547 l3 -158 -23 0 c-21 0 -24 -5 -25 -37 -4 -118 -7 -179 -8 -190 -1 -8
-16 -13 -41 -13 l-40 0 0 1243 c0 684 2 1246 4 1248 3 2 24 4 47 4 33 0 43 -4
45 -19z"/>
</g>
</svg>
